#!OML:ASF I:\Actors\actors\Patient Classification 1\Patient 1\Session 1\Subject1.ASF
:FULLY-SPECIFIED
:DEGREES
1426
root 0.653521 17.4993 8.77697 41.9237 -5.84227 -8.78456
lowerback 16.4612 -0.650378 8.82421
upperback -1.49086 1.24304 3.19029
thorax -10.8525 0.170517 -1.80428
lowerneck -1.92786 -4.15482 2.24013
upperneck 2.60673 -5.78271 5.77373
head 1.24746 -2.78219 1.32079
rclavicle -1.14301e-014 2.08724e-014
rhumerus 51.1858 22.7136 -57.4497
rradius 114.497
rwrist 37.779
rhand -27.1491 -37.7658
rfingers 7.12502
rthumb -0.564074 292.255
lclavicle -1.14301e-014 2.08724e-014
lhumerus 30.7049 -39.5182 81.1585
lradius 109.877
lwrist -25.6669
lhand -54.7379 298.875
lfingers 7.12502
lthumb -27.1294 -33.0544
rfemur -44.3316 28.5659 3.14148
rtibia -2.39171
rfoot -6.02141 -31.7839
rtoes 14.2954
lfemur -34.6809 -42.0343 25.6115
ltibia -11.9186
lfoot -67.596 35.2947
ltoes 56.4701
1427
root 0.644355 17.4963 8.78539 42.1948 -5.84968 -8.76491
lowerback 16.5345 -0.598712 8.81513
upperback -1.31728 1.30212 3.17976
thorax -10.6922 0.207999 -1.82864
lowerneck -1.65186 -4.23133 2.5903
upperneck 2.33938 -5.85421 5.41596
head 1.09216 -2.8319 1.1571
rclavicle -2.25124e-014 -7.77745e-014
rhumerus 50.6304 22.9987 -57.7313
rradius 114.614
rwrist 38.1589
rhand -27.1838 -37.5686
rfingers 7.12502
rthumb -0.59761 292.453
lclavicle -2.25124e-014 -7.77745e-014
lhumerus 30.5577 -39.7318 81.1747
lradius 109.837
lwrist -25.7128
lhand -57.8408 301.323
lfingers 7.12502
lthumb -30.094 -31.1065
rfemur -44.6068 28.494 3.01533
rtibia -2.43043
rfoot -6.0557 -31.7919
rtoes 14.5671
lfemur -34.8573 -41.7753 25.7748
ltibia -11.994
lfoot -67.5581 35.185
ltoes 56.4649
1428
root 0.636441 17.4929 8.79419 42.4601 -5.86569 -8.76923
lowerback 16.5604 -0.533408 8.85857
upperback -1.11079 1.37757 3.13744
thorax -10.4644 0.252497 -1.92139
lowerneck -1.3658 -4.29413 3.08705
upperneck 1.97061 -5.9047 5.05993
head 0.899706 -2.87303 0.974088
rclavicle -3.86636e-014 -8.05078e-015
rhumerus 50.8327 22.2448 -57.7773
rradius 114.39
rwrist 37.2716
rhand -26.995 -37.251
rfingers 7.12502
rthumb -0.41529 292.77
lclavicle -3.86636e-014 -8.05078e-015
lhumerus 30.464 -39.9613 81.1697
lradius 109.747
lwrist -26.0594
lhand -58.8455 300.954
lfingers 7.12502
lthumb -31.0521 -31.6547
rfemur -44.925 28.4262 2.88384
rtibia -2.39938
rfoot -5.98157 -31.788
rtoes 14.4137
lfemur -34.9957 -41.5085 25.9259
ltibia -12.0802
lfoot -67.552 35.0041
ltoes 56.5192
1429
root 0.630068 17.4905 8.80389 42.7306 -5.86603 -8.75569
lowerback 16.6005 -0.54402 8.88403
upperback -0.977477 1.35631 3.08464
thorax -10.3372 0.247029 -1.99018
lowerneck -1.38419 -4.32311 2.25062
upperneck 2.56732 -5.98722 6.05738
head 1.1565 -2.89009 1.41684
rclavicle -3.13086e-014 -4.52235e-015
rhumerus 49.8684 23.2416 -58.3658
rradius 114.858
rwrist 37.9401
rhand -26.9621 -36.9153
rfingers 7.12502
rthumb -0.383483 293.105
lclavicle -3.13086e-014 -4.52235e-015
lhumerus 30.1575 -39.9739 81.2505
lradius 109.816
lwrist -25.7238
lhand -58.1499 299.712
lfingers 7.12502
lthumb -30.3888 -32.7719
rfemur -45.2498 28.3194 2.73771
rtibia -2.36185
rfoot -5.806 -31.8133
rtoes 14.0917
lfemur -35.2089 -41.2553 26.0918
ltibia -12.109
lfoot -67.5405 34.8348
ltoes 56.6056
1430
root 0.623729 17.4887 8.8141 42.963 -5.84109 -8.7022
lowerback 16.8658 -0.578976 8.9017
upperback -0.996976 1.34331 3.04216
thorax -10.5118 0.231215 -2.04456
lowerneck -1.30542 -4.33292 1.42186
upperneck 3.3366 -6.05524 6.9387
head 1.45322 -2.89707 1.83415
rclavicle -9.88954e-015 2.10215e-014
rhumerus 50.0233 22.8725 -58.4961
rradius 114.382
rwrist 37.3602
rhand -27.0129 -37.1839
rfingers 7.12502
rthumb -0.43251 292.837
lclavicle -9.88954e-015 2.10215e-014
lhumerus 29.4806 -40.1209 81.552
lradius 109.856
lwrist -25.8119
lhand -58.2073 299.412
lfingers 7.12502
lthumb -30.4436 -33.0819
rfemur -45.4894 28.1967 2.62085
rtibia -2.34868
rfoot -5.79935 -31.835
rtoes 14.2669
lfemur -35.4419 -41.0615 26.2469
ltibia -12.1269
lfoot -67.5266 34.7075
ltoes 56.6795
1431
root 0.61852 17.4874 8.82311 43.1969 -5.73763 -8.68553
lowerback 17.2461 -0.589523 9.06492
upperback -1.11628 1.41862 3.03097
thorax -10.8559 0.240396 -2.16796
lowerneck -1.19977 -4.37246 0.636662
upperneck 4.17153 -6.17306 7.71961
head 1.76973 -2.92865 2.22146
rclavicle -3.67752e-015 1.3418e-015
rhumerus 48.3319 24.2499 -59.1019
rradius 115.036
rwrist 38.5415
rhand -27.2212 -37.1729
rfingers 7.12502
rthumb -0.6337 292.848
lclavicle -3.67752e-015 1.3418e-015
lhumerus 28.6097 -40.4342 82.0925
lradius 109.887
lwrist -26.0256
lhand -58.7449 299.467
lfingers 7.12502
lthumb -30.9562 -33.1234
rfemur -45.6985 28.0663 2.61256
rtibia -2.32967
rfoot -5.90981 -31.8178
rtoes 14.7046
lfemur -35.7167 -40.8747 26.5177
ltibia -12.1556
lfoot -67.5099 34.5905
ltoes 56.764
1432
root 0.614 17.486 8.83154 43.4689 -5.6783 -8.7385
lowerback 17.3659 -0.610626 9.14095
upperback -1.1284 1.42893 3.09237
thorax -10.9386 0.239113 -2.14578
lowerneck -0.983389 -4.30998 -0.102007
upperneck 4.81405 -6.14321 8.39497
head 1.99738 -2.89793 2.58148
rclavicle -1.12313e-014 4.40805e-014
rhumerus 47.5658 24.9698 -59.4001
rradius 115.328
rwrist 38.7848
rhand -27.2019 -37.1884
rfingers 7.12502
rthumb -0.615133 292.833
lclavicle -1.12313e-014 4.40805e-014
lhumerus 27.9035 -40.4633 82.533
lradius 109.936
lwrist -26.0407
lhand -58.7304 299.581
lfingers 7.12502
lthumb -30.9424 -33.0062
rfemur -45.9861 27.9986 2.59411
rtibia -2.3024
rfoot -5.90903 -31.8028
rtoes 14.7937
lfemur -35.9393 -40.6114 26.7756
ltibia -12.1864
lfoot -67.4708 34.5685
ltoes 56.7729
1433
root 0.608019 17.4836 8.84123 43.7256 -5.75762 -8.79903
lowerback 17.2091 -0.632798 8.93872
upperback -0.835151 1.32417 3.20745
thorax -10.5326 0.227589 -1.88198
lowerneck -1.53672 -4.14754 -0.967537
upperneck 5.74602 -6.02832 9.13318
head 2.46776 -2.8007 2.98474
rclavicle 1.30204e-014 -1.05604e-013
rhumerus 47.7861 25.2853 -59.4291
rradius 115.375
rwrist 38.4819
rhand -27.1327 -37.1048
rfingers 7.12502
rthumb -0.548302 292.916
lclavicle 1.30204e-014 -1.05604e-013
lhumerus 27.919 -40.071 82.4794
lradius 109.932
lwrist -25.9298
lhand -58.2939 299.77
lfingers 7.12502
lthumb -30.5262 -32.7388
rfemur -46.3038 28.0284 2.46956
rtibia -2.27479
rfoot -5.90694 -31.8073
rtoes 14.8114
lfemur -35.9636 -40.3222 26.8268
ltibia -12.2697
lfoot -67.4937 34.4652
ltoes 56.7935
1434
root 0.601937 17.4805 8.85174 43.967 -5.80475 -8.85671
lowerback 17.1328 -0.672589 8.781
upperback -0.524909 1.21032 3.28255
thorax -10.1541 0.205476 -1.6865
lowerneck -1.85249 -4.03508 -0.798605
upperneck 5.87947 -5.88941 8.94545
head 2.5471 -2.72082 2.889
rclavicle 4.17448e-015 8.85586e-014
rhumerus 48.4265 25.2419 -59.3298
rradius 115.033
rwrist 38.544
rhand -27.1036 -37.3053
rfingers 7.12502
rthumb -0.520162 292.716
lclavicle 4.17448e-015 8.85586e-014
lhumerus 28.0941 -39.645 82.2938
lradius 109.906
lwrist -25.9133
lhand -57.7388 299.646
lfingers 7.12502
lthumb -29.9967 -32.7659
rfemur -46.5704 28.0519 2.3887
rtibia -2.26687
rfoot -5.95474 -31.8299
rtoes 14.9311
lfemur -35.9643 -40.0693 26.8928
ltibia -12.38
lfoot -67.5881 34.2088
ltoes 56.8966
